# xmcd CD database file
#
# Track frame offsets:
#	150
#	25650
#	57418
#
# Disc length: 871 seconds
#
# Revision: 0
# Processed by: cddbd v1.5PL3 Copyright (c) Steve Scherf et al.
# Submitted via: CDex 1.50
#
DISCID=1d036503
DTITLE=ZIGGY - My Love (EP)
DYEAR=2003
DGENRE=Hard Rock
TTITLE0=My Love
TTITLE1=7 Days' Hangover
TTITLE2=(Enhanced CD データ)
EXTD=YEAR: 2003
EXTT0=
EXTT1=
EXTT2=
PLAYORDER=
